<svg width="1200" height="630" viewBox="0 0 1200 630" fill="none" xmlns="http://www.w3.org/2000/svg">
  <rect width="1200" height="630" fill="#1E1F26"/>
  <rect x="72" y="72" width="1056" height="486" rx="36" fill="#282A33"/>
  <circle cx="292" cy="280" r="124" fill="#E8A44A" fill-opacity="0.14"/>
  <circle cx="292" cy="280" r="92" fill="#E8A44A" fill-opacity="0.16"/>
  <circle cx="292" cy="280" r="60" fill="#E8A44A"/>
  <path d="M262 280C262 263.431 275.431 250 292 250C308.569 250 322 263.431 322 280C322 296.569 308.569 310 292 310C275.431 310 262 296.569 262 280Z" fill="#1E1F26"/>
  <path d="M404 210H798" stroke="#E8E6E1" stroke-width="18" stroke-linecap="round"/>
  <path d="M404 280H934" stroke="#E8E6E1" stroke-width="18" stroke-linecap="round"/>
  <path d="M404 350H860" stroke="#9B99A1" stroke-width="14" stroke-linecap="round"/>
  <path d="M404 420H686" stroke="#9B99A1" stroke-width="14" stroke-linecap="round"/>
  <text x="404" y="166" fill="#E8A44A" font-family="Nunito, Arial, sans-serif" font-size="36" font-weight="800">NoiseTracker.online</text>
  <text x="404" y="514" fill="#E8E6E1" font-family="Nunito, Arial, sans-serif" font-size="44" font-weight="800">Real-Time Noise Monitor</text>
  <text x="404" y="558" fill="#9B99A1" font-family="Nunito, Arial, sans-serif" font-size="26" font-weight="600">Measure live environmental dB levels directly in your browser.</text>
</svg>
